<svg id="Capa_1" enable-background="new 0 0 512 512" height="512" viewBox="0 0 512 512" width="512" xmlns="http://www.w3.org/2000/svg"><g><path d="m426.097 166.272v-98.684c0-19.18-15.604-34.783-34.783-34.783-19.859 0-39.196 7.004-54.449 19.723l-80.352 66.999h-71.845c-4.143 0-7.5 3.358-7.5 7.5s3.357 7.5 7.5 7.5h67.06v142.707l-119.063-.003v-142.705h17.003c4.143 0 7.5-3.358 7.5-7.5s-3.357-7.5-7.5-7.5h-64.066c-14.488 0-26.275 11.787-26.275 26.275v120.157c0 14.488 11.787 26.275 26.275 26.275h38.255c5.734 3.679 10.574 8.457 14.287 14.083l-41.542 19.314-89.102-.005c-4.143 0-7.5 3.358-7.5 7.5v35.024c0 4.142 3.357 7.5 7.5 7.5s7.5-3.358 7.5-7.5v-27.524h34.09v123.569h-34.09v-60.862c0-4.142-3.357-7.5-7.5-7.5s-7.5 3.358-7.5 7.5v68.362c0 4.142 3.357 7.5 7.5 7.5h49.09c4.143 0 7.5-3.358 7.5-7.5v-6.098c18.345 2.357 33.002 13.593 52.17 13.593h120.99c21.475 0 32.758-26.743 17.772-42.129 9.27-9.52 9.273-25.119 0-34.64 9.271-9.522 9.273-25.125-.001-34.648 14.985-15.355 3.707-42.152-17.771-42.152h-9.82v-33.387h29.084l80.35 66.997c15.252 12.718 34.589 19.722 54.449 19.722 19.18 0 34.783-15.604 34.783-34.783v-23.231c0-4.142-3.357-7.5-7.5-7.5s-7.5 3.358-7.5 7.5v23.231c0 10.908-8.875 19.783-19.783 19.783-16.356 0-32.282-5.769-44.844-16.243l-79.741-66.49v-150.681l79.741-66.49c12.563-10.475 28.488-16.243 44.844-16.243 10.908 0 19.783 8.875 19.783 19.783v217.145c0 4.142 3.357 7.5 7.5 7.5s7.5-3.358 7.5-7.5v-39.246c16.634-3.471 29.169-18.245 29.169-35.895v-7.425c.001-17.649-12.534-32.424-29.168-35.895zm-308.433 110.961h-32.062c-6.217 0-11.275-5.058-11.275-11.275v-19.697h10.863c4.143 0 7.5-3.358 7.5-7.5s-3.357-7.5-7.5-7.5h-10.864v-85.459c0-6.217 5.059-11.275 11.275-11.275h32.063zm94.766 15v33.397h-51.655c-1.43-12.171-6.57-24.009-14.446-33.397zm24.82 48.387c8.43 0 12.998 10.716 6.955 16.758-1.864 1.858-4.334 2.881-6.955 2.881-9.386 0-9.813 15 0 15 5.415 0 9.82 4.41 9.82 9.83 0 2.617-1.021 5.083-2.874 6.947-1.863 1.853-4.329 2.874-6.946 2.874-9.386 0-9.813 15 0 15 5.415 0 9.82 4.405 9.82 9.82 0 2.621-1.023 5.091-2.865 6.938-1.864 1.858-4.334 2.881-6.955 2.881-9.386 0-9.813 15 0 15 5.415 0 9.82 4.405 9.82 9.82 0 2.621-1.023 5.091-2.865 6.938-1.864 1.858-4.334 2.881-6.955 2.881h-120.99c-18.706 0-33.801-11.829-52.17-13.707v-109.851h34.17c1.093 0 2.172-.239 3.162-.699l42.968-19.977c1.215 4.272 1.82 8.735 1.82 13.176 0 4.142 3.357 7.5 7.5 7.5zm203.016-131.028c0 9.313-5.905 17.273-14.169 20.331v-48.086c8.264 3.058 14.169 11.017 14.169 20.331z"/><path d="m153.053 168.201v27.902c0 4.142 3.357 7.5 7.5 7.5h63.285c4.143 0 7.5-3.358 7.5-7.5v-27.902c0-4.142-3.357-7.5-7.5-7.5h-63.285c-4.143 0-7.5 3.358-7.5 7.5zm15 7.5h48.285v12.902h-48.285z"/><path d="m504.5 200.302h-17.113c-4.143 0-7.5 3.358-7.5 7.5s3.357 7.5 7.5 7.5h17.113c4.143 0 7.5-3.358 7.5-7.5s-3.357-7.5-7.5-7.5z"/><path d="m479.279 175.77c1.003 0 2.023-.203 3.001-.63l15.68-6.857c3.795-1.66 5.526-6.082 3.867-9.876-1.66-3.795-6.082-5.526-9.877-3.867l-15.68 6.857c-3.795 1.66-5.526 6.082-3.867 9.876 1.233 2.817 3.987 4.497 6.876 4.497z"/><path d="m497.96 247.322-15.68-6.857c-3.792-1.658-8.217.071-9.876 3.866-1.66 3.795.07 8.217 3.866 9.877l15.68 6.857c.978.428 1.997.63 3.001.63 2.89 0 5.644-1.68 6.875-4.497 1.66-3.794-.07-8.216-3.866-9.876z"/></g></svg>